<?xml version="1.0" encoding="UTF-8"?>
<svg xmlns="http://www.w3.org/2000/svg" xmlns:xlink="http://www.w3.org/1999/xlink" width="45pt" height="66pt" viewBox="0 0 45 66" version="1.1">
<g id="surface1">
<path style=" stroke:none;fill-rule:nonzero;fill:rgb(0%,0%,0%);fill-opacity:1;" d="M 26.765625 14.375 C 26.65625 23.871094 26.617188 24.015625 24.042969 26.511719 C 22.167969 28.308594 20.074219 28.964844 16.101562 28.964844 L 12.867188 28.964844 L 12.867188 34.539062 L 17.207031 34.394531 C 23.089844 34.136719 25.074219 33.367188 28.34375 30.066406 C 32.207031 26.144531 32.464844 25.226562 32.648438 14.558594 L 32.792969 5.867188 L 26.875 5.867188 Z M 26.765625 14.375 "/>
<path style=" stroke:none;fill-rule:nonzero;fill:rgb(0%,0%,0%);fill-opacity:1;" d="M 12.683594 39.234375 C 12.574219 39.417969 11.691406 39.601562 10.734375 39.601562 C 8.75 39.601562 7.90625 40.003906 8.199219 40.847656 C 8.382812 41.359375 8.566406 41.359375 9.707031 40.882812 C 12.09375 39.894531 12.207031 40.039062 11.175781 42.789062 C 9.226562 47.996094 8.160156 49.132812 7.28125 46.96875 C 6.910156 46.089844 6.691406 45.941406 6.25 46.199219 C 5.367188 46.75 6.542969 48.546875 7.867188 48.691406 C 9.484375 48.875 10.773438 47.335938 12.132812 43.597656 C 12.792969 41.800781 13.492188 40.222656 13.640625 40.113281 C 13.824219 40.003906 13.96875 39.671875 13.96875 39.378906 C 13.96875 38.792969 13.015625 38.683594 12.683594 39.234375 Z M 12.683594 39.234375 "/>
<path style=" stroke:none;fill-rule:nonzero;fill:rgb(0%,0%,0%);fill-opacity:1;" d="M 18.308594 41.433594 C 17.390625 43.816406 16.875 44.109375 15.808594 42.789062 C 14.964844 41.800781 14.082031 42.167969 13.160156 44.035156 C 12.207031 45.832031 12.28125 47.886719 13.308594 48.4375 C 14.007812 48.804688 14.226562 48.730469 14.925781 47.886719 C 15.40625 47.375 15.882812 46.382812 16.03125 45.6875 C 16.140625 44.988281 16.507812 44.328125 16.800781 44.21875 C 17.242188 44.035156 17.28125 44.21875 17.058594 45.210938 C 16.542969 47.445312 16.65625 48.144531 17.648438 48.398438 C 18.160156 48.546875 18.785156 48.582031 19.042969 48.472656 C 19.59375 48.289062 20.957031 45.761719 20.957031 44.953125 C 20.957031 44.695312 21.214844 44.367188 21.507812 44.21875 C 21.949219 44.074219 22.023438 44.21875 21.800781 45.027344 C 21.65625 45.578125 21.542969 46.492188 21.507812 47.078125 C 21.507812 47.960938 21.691406 48.214844 22.535156 48.4375 C 23.785156 48.765625 24.816406 47.8125 25.441406 45.761719 C 26.03125 43.816406 26.398438 44.035156 26.175781 46.164062 C 26.03125 47.738281 26.101562 47.996094 26.875 48.398438 C 27.609375 48.804688 27.792969 48.765625 28.53125 47.886719 C 29.007812 47.375 29.484375 46.382812 29.632812 45.6875 C 29.742188 44.988281 30.109375 44.328125 30.40625 44.21875 C 30.808594 44.035156 30.882812 44.148438 30.699219 44.625 C 30.035156 46.308594 30.074219 47.484375 30.808594 48.144531 C 31.910156 49.132812 32.867188 48.4375 33.75 46.125 C 34.707031 43.597656 35.292969 43.414062 34.78125 45.832031 C 34.523438 47.152344 34.523438 47.777344 34.816406 48.070312 C 35.148438 48.398438 35.332031 48.253906 35.515625 47.519531 L 35.734375 46.53125 L 36.46875 47.667969 C 36.839844 48.289062 37.351562 48.765625 37.609375 48.65625 C 37.867188 48.582031 38.457031 47.8125 38.933594 46.898438 L 39.78125 45.285156 L 38.898438 46.347656 C 38.382812 46.96875 37.792969 47.300781 37.574219 47.152344 C 36.910156 46.75 37.023438 46.347656 38.050781 45.246094 C 38.566406 44.695312 38.96875 43.851562 38.96875 43.375 C 38.96875 42.238281 37.90625 41.835938 37.28125 42.714844 C 36.582031 43.671875 36.65625 43.265625 37.5 41.214844 C 37.90625 40.261719 38.160156 39.417969 38.089844 39.308594 C 37.574219 38.828125 36.726562 39.746094 36.140625 41.46875 C 35.367188 43.632812 34.742188 44.074219 33.96875 42.9375 C 33.273438 41.945312 32.132812 41.945312 31.617188 42.898438 C 31.398438 43.304688 30.917969 43.632812 30.515625 43.632812 C 30.148438 43.632812 29.707031 43.304688 29.59375 42.898438 C 29.300781 41.945312 28.382812 41.984375 27.316406 42.9375 L 26.507812 43.742188 L 25.773438 42.863281 C 25.074219 41.984375 25.074219 41.984375 24.265625 42.714844 L 23.492188 43.414062 L 24.226562 41.507812 C 25.148438 39.160156 25.148438 39.160156 24.375 39.308594 C 24.007812 39.378906 23.417969 40.222656 22.976562 41.398438 C 22.242188 43.339844 21.324219 44.292969 21.324219 43.121094 C 21.324219 42.3125 20.332031 41.984375 19.667969 42.535156 C 18.96875 43.121094 18.96875 42.863281 19.667969 41.175781 C 20.367188 39.5625 20.367188 39.234375 19.707031 39.234375 C 19.410156 39.234375 18.824219 40.1875 18.308594 41.433594 Z M 37.941406 43.890625 C 37.71875 44.257812 37.207031 44.878906 36.726562 45.285156 L 35.917969 46.015625 L 36.398438 45.101562 C 36.984375 43.964844 37.941406 42.828125 38.125 43.046875 C 38.234375 43.121094 38.125 43.523438 37.941406 43.890625 Z M 14.851562 46.199219 C 14.523438 47.007812 14.082031 47.667969 13.898438 47.667969 C 13.457031 47.667969 13.675781 45.832031 14.339844 44.183594 C 14.78125 43.082031 14.78125 43.082031 15.109375 43.925781 C 15.332031 44.476562 15.257812 45.210938 14.851562 46.199219 Z M 28.457031 46.199219 C 28.125 47.007812 27.71875 47.667969 27.535156 47.667969 C 27.023438 47.667969 27.132812 46.347656 27.832031 44.695312 C 28.382812 43.304688 28.457031 43.230469 28.714844 43.964844 C 28.933594 44.476562 28.824219 45.285156 28.457031 46.199219 Z M 19.484375 45.613281 C 19.082031 46.898438 18.160156 47.921875 17.792969 47.558594 C 17.683594 47.445312 18.050781 46.492188 18.601562 45.394531 C 19.667969 43.339844 20.21875 43.488281 19.484375 45.613281 Z M 24.082031 45.90625 C 23.53125 47.226562 22.90625 47.921875 22.574219 47.558594 C 22.464844 47.445312 22.832031 46.492188 23.382812 45.394531 C 24.484375 43.304688 25.035156 43.671875 24.082031 45.90625 Z M 32.609375 46.382812 C 32.28125 47.078125 31.839844 47.667969 31.617188 47.667969 C 31.140625 47.667969 31.140625 47.8125 31.839844 45.429688 C 32.390625 43.597656 32.464844 43.523438 32.832031 44.292969 C 33.125 44.917969 33.050781 45.429688 32.609375 46.382812 Z M 32.609375 46.382812 "/>
<path style=" stroke:none;fill-rule:nonzero;fill:rgb(0%,0%,0%);fill-opacity:1;" d="M 17.757812 54.265625 C 17.648438 54.890625 17.425781 55.476562 17.242188 55.585938 C 17.09375 55.660156 17.023438 55.988281 17.132812 56.285156 C 17.390625 56.871094 16.617188 59.398438 16.214844 59.398438 C 15.550781 59.398438 15.476562 58.851562 16.03125 58.007812 C 16.433594 57.382812 16.46875 57.199219 16.140625 57.421875 C 15.699219 57.640625 15.699219 57.601562 16.140625 57.089844 C 16.582031 56.539062 16.542969 56.464844 16.066406 56.464844 C 14.890625 56.464844 14.191406 59.214844 15.257812 59.621094 C 15.550781 59.765625 16.101562 59.730469 16.46875 59.582031 C 16.800781 59.4375 17.425781 59.289062 17.792969 59.253906 C 18.199219 59.214844 18.53125 58.996094 18.601562 58.738281 C 18.640625 58.484375 18.601562 58.445312 18.492188 58.667969 C 18.050781 59.582031 17.574219 58.960938 17.757812 57.640625 C 18.050781 55.769531 18.382812 54.15625 18.566406 53.605469 C 18.640625 53.386719 18.566406 53.167969 18.34375 53.167969 C 18.160156 53.167969 17.90625 53.679688 17.757812 54.265625 Z M 17.757812 54.265625 "/>
<path style=" stroke:none;fill-rule:nonzero;fill:rgb(0%,0%,0%);fill-opacity:1;" d="M 21.359375 54.339844 C 20.773438 56.246094 20.550781 58.8125 20.917969 59.363281 C 21.25 59.875 22.058594 59.621094 22.058594 58.996094 C 22.058594 58.777344 21.875 58.738281 21.65625 58.886719 C 21.324219 59.070312 21.285156 58.851562 21.46875 58.078125 C 21.617188 57.492188 21.765625 56.503906 21.839844 55.917969 C 22.058594 53.238281 22.058594 53.3125 22.425781 53.898438 C 22.71875 54.375 22.792969 54.339844 22.792969 53.789062 C 22.792969 52.691406 21.765625 53.09375 21.359375 54.339844 Z M 21.359375 54.339844 "/>
<path style=" stroke:none;fill-rule:nonzero;fill:rgb(0%,0%,0%);fill-opacity:1;" d="M 12.351562 55.109375 C 11.175781 56.648438 10.21875 59.289062 10.515625 60.207031 C 10.734375 60.941406 11.949219 61.085938 12.351562 60.425781 C 12.535156 60.171875 12.757812 60.316406 12.976562 60.902344 L 13.34375 61.785156 L 13.601562 60.867188 C 14.082031 59.328125 14.042969 57.492188 13.53125 57.675781 C 13.273438 57.75 13.089844 58.042969 13.160156 58.300781 C 13.273438 58.851562 12.242188 60.5 11.765625 60.5 C 10.660156 60.5 11.984375 56.171875 13.457031 54.964844 C 14.042969 54.488281 14.082031 54.523438 13.898438 55.292969 C 13.75 55.734375 13.824219 56.027344 14.007812 55.878906 C 14.191406 55.769531 14.339844 55.292969 14.339844 54.78125 C 14.339844 53.535156 13.457031 53.679688 12.351562 55.109375 Z M 12.351562 55.109375 "/>
<path style=" stroke:none;fill-rule:nonzero;fill:rgb(0%,0%,0%);fill-opacity:1;" d="M 32.90625 55.257812 C 32.648438 56.613281 30.773438 59.398438 30.109375 59.398438 C 29.59375 59.398438 29.742188 58.445312 30.332031 57.933594 C 31.101562 57.308594 31.03125 56.394531 30.257812 56.539062 C 29.890625 56.613281 29.410156 57.199219 29.191406 57.859375 C 28.640625 59.582031 27.941406 60.171875 27.941406 58.960938 C 27.941406 58.410156 27.792969 57.859375 27.574219 57.75 C 27.390625 57.640625 27.207031 57.089844 27.207031 56.613281 C 27.207031 56.027344 27.023438 55.734375 26.765625 55.808594 C 26.066406 56.0625 25.992188 57.382812 26.65625 57.933594 C 26.949219 58.191406 27.207031 58.703125 27.207031 59.105469 C 27.207031 59.914062 28.199219 60.390625 28.75 59.839844 C 28.96875 59.621094 29.375 59.546875 29.632812 59.65625 C 29.925781 59.765625 30.40625 59.621094 30.734375 59.363281 C 31.066406 59.105469 31.398438 59.035156 31.542969 59.253906 C 31.691406 59.4375 32.316406 59.621094 32.941406 59.65625 C 33.859375 59.730469 34.191406 59.511719 34.707031 58.558594 L 35.367188 57.382812 L 34.449219 58.484375 L 33.53125 59.582031 L 33.566406 57.492188 C 33.601562 56.320312 33.75 55.585938 33.898438 55.84375 C 34.082031 56.101562 34.191406 55.808594 34.191406 55.074219 C 34.191406 53.386719 33.234375 53.535156 32.90625 55.257812 Z M 30.183594 57.675781 C 29.816406 58.007812 29.78125 57.96875 30 57.457031 C 30.109375 57.089844 30.332031 56.90625 30.441406 57.015625 C 30.550781 57.125 30.441406 57.421875 30.183594 57.675781 Z M 32.390625 59.144531 C 32.09375 59.4375 31.984375 59.328125 31.984375 58.8125 C 31.984375 57.824219 32.5 57.308594 32.648438 58.117188 C 32.71875 58.445312 32.609375 58.921875 32.390625 59.144531 Z M 32.390625 59.144531 "/>
<path style=" stroke:none;fill-rule:nonzero;fill:rgb(0%,0%,0%);fill-opacity:1;" d="M 22.09375 55.21875 C 22.09375 55.625 22.207031 55.734375 22.316406 55.441406 C 22.425781 55.183594 22.390625 54.851562 22.28125 54.742188 C 22.167969 54.597656 22.058594 54.816406 22.09375 55.21875 Z M 22.09375 55.21875 "/>
<path style=" stroke:none;fill-rule:nonzero;fill:rgb(0%,0%,0%);fill-opacity:1;" d="M 22.390625 57.824219 C 22.023438 58.261719 22.023438 58.335938 22.351562 58.152344 C 22.648438 57.96875 22.792969 58.152344 22.792969 58.777344 C 22.792969 59.253906 22.90625 59.730469 23.015625 59.875 C 23.308594 60.171875 24.265625 59.765625 24.265625 59.328125 C 24.265625 59.144531 24.117188 59.105469 23.898438 59.214844 C 23.675781 59.328125 23.53125 59.035156 23.53125 58.519531 C 23.53125 57.347656 23.015625 57.054688 22.390625 57.824219 Z M 22.390625 57.824219 "/>
<path style=" stroke:none;fill-rule:nonzero;fill:rgb(0%,0%,0%);fill-opacity:1;" d="M 24.484375 58.007812 C 24.191406 59.179688 25.109375 60.058594 25.882812 59.398438 C 26.214844 59.144531 26.46875 58.738281 26.46875 58.519531 C 26.46875 58.300781 26.285156 58.410156 26.066406 58.777344 C 25.550781 59.65625 25.074219 59.253906 25.292969 58.117188 C 25.476562 56.980469 24.816406 56.90625 24.484375 58.007812 Z M 24.484375 58.007812 "/>
</g>
</svg>
